# xmcd
#
# Track frame offsets: 
#        150
#        22430
#        34320
#        43427
#        59770
#        78762
#        104060
#        118535
#        131795
#        146010
#        160935
#        175090
#        187327
#
# Disc length: 2592 seconds
#
# Revision: 4
# Processed by: cddbd v1.5.2PL0 Copyright (c) Steve Scherf et al.
# Submitted via: ExactAudioCopy v0.99pb4
#
DISCID=ce0a1e0d
DTITLE=Various Artist - Putumayo Presents A Native American Odyssey -
DTITLE=Intuit To Inca
DYEAR=1998
DGENRE=Ethnic
TTITLE0=Kashtin - Akua Tuta (Montagnais-Canada)
TTITLE1=Tudjaat - Qiugauiit (Inuit-Canada)
TTITLE2=Andrew Vasquez - Wind River (Apache-USA)
TTITLE3=Bill Miller - Ghost Dance (Mohican-USA)
TTITLE4=Burning Sky - Native Funk (White River Ute-Dine-USA)
TTITLE5=Jerry Alfred and The Medicine Beat - Nendaa-Go Back (Tutchone-Ca
TTITLE5=nada)
TTITLE6=Jaramar Huave - La Tortuga (Huave-Mexico)
TTITLE7=Binni Gula'za - Ni'bixi Dxi Zina (Zapotec-Mexico)
TTITLE8=Marlui Miranda - Araruna (Amazon-Brazil)
TTITLE9=Regional Vermelho E Branco - Vale Do Javari (Amazon-Brazil)
TTITLE10=Los Incas - Terra De Maimara (Andean-Peru)
TTITLE11=Bolivia Manta - Chayantenita (Andean-Bolivia)
TTITLE12=Expresión - Ollantay (Andean-Peru)
EXTD=YEAR: 1998  ID3G:  64
EXTT0=
EXTT1=
EXTT2=
EXTT3=
EXTT4=
EXTT5=
EXTT6=
EXTT7=
EXTT8=
EXTT9=
EXTT10=
EXTT11=
EXTT12=
PLAYORDER=
